<svg xmlns="http://www.w3.org/2000/svg" viewBox="0 0 720 520">
  <defs><linearGradient id="g" x1="0" x2="1" y1="0" y2="1"><stop stop-color="#052e16"/><stop offset=".48" stop-color="#0f766e"/><stop offset="1" stop-color="#84cc16"/></linearGradient></defs>
  <rect width="720" height="520" fill="url(#g)"/>
  <circle cx="552" cy="108" r="108" fill="#bbf7d0" opacity=".18"/>
  <circle cx="138" cy="418" r="146" fill="#22c55e" opacity=".18"/>
  <path d="M348 391c-87-64-126-148-93-210 41-78 177-49 231-127 39 108 8 244-73 306-21 16-43 26-65 31Z" fill="#dcfce7"/>
  <path d="M349 388c17-113 55-204 119-302" fill="none" stroke="#166534" stroke-width="13" stroke-linecap="round"/>
  <path d="M297 211c33 11 62 27 88 49M281 281c42 4 80 15 112 34" stroke="#166534" stroke-width="10" stroke-linecap="round" opacity=".75"/>
  <g fill="#f97316"><circle cx="385" cy="188" r="13"/><circle cx="421" cy="265" r="10"/><circle cx="336" cy="301" r="12"/></g>
  <rect x="72" y="70" width="190" height="74" rx="24" fill="#ffffff" opacity=".86"/>
  <text x="104" y="116" font-family="Inter, Arial" font-size="24" font-weight="800" fill="#052e16">AI Diagnosis</text>
</svg>
