<svg xmlns="http://www.w3.org/2000/svg" viewBox="0 0 720 520">
  <defs><linearGradient id="g" x1="0" x2="1" y1="0" y2="1"><stop stop-color="#0c4a6e"/><stop offset=".5" stop-color="#0891b2"/><stop offset="1" stop-color="#facc15"/></linearGradient></defs>
  <rect width="720" height="520" fill="url(#g)"/>
  <circle cx="523" cy="146" r="72" fill="#fde68a"/>
  <path d="M202 289c10-70 71-125 145-125 62 0 116 39 137 94 55 3 99 49 99 105 0 58-47 105-105 105H193c-58 0-105-47-105-105 0-53 39-97 90-104 8-1 16 0 24 0Z" fill="#e0f2fe" opacity=".95"/>
  <path d="M190 366h330" stroke="#0369a1" stroke-width="14" stroke-linecap="round" opacity=".45"/>
  <path d="M176 93h170" stroke="#fff" stroke-width="12" stroke-linecap="round" opacity=".42"/>
  <path d="M125 132h105" stroke="#fff" stroke-width="10" stroke-linecap="round" opacity=".35"/>
  <rect x="96" y="70" width="214" height="70" rx="24" fill="#082f49" opacity=".72"/>
  <text x="126" y="114" font-family="Inter, Arial" font-size="24" font-weight="800" fill="#ecfeff">Weather Intel</text>
</svg>
